<mxfile host="app.diagrams.net" modified="2023-04-19T09:41:06.590Z" agent="Mozilla/5.0 (X11; Linux x86_64; rv:103.0) Gecko/20100101 Firefox/103.0" version="21.1.9" etag="jpyOknvP2rlLGbDSfSmU" type="github">
  <diagram name="Page-1" id="yHoTYNOTeN7ww50r7h90">
    <mxGraphModel>
      <root>
        <mxCell id="0" />
        <mxCell id="1" parent="0" />
      </root>
    </mxGraphModel>
  </diagram>
</mxfile>
